<svg xmlns="http://www.w3.org/2000/svg" viewBox="0 0 480 320" aria-hidden="true" focusable="false" data-icon="kofi" role="img">
<path fill="currentColor" d="M465.5,102.1c-6.3-33.4-24.3-54.2-42.7-67C403.7,21.9,381,14.9,357.8,15H28.2c-11.5,0-15.9,11.2-15.9,16.8c0,0.7,0,3.7,0,3.7s-0.5,145.8,0.5,223.7c3.1,46,49.2,46,49.2,46s150.4-0.4,222.5-0.9c3.4,0,6.7-0.4,10-1.2c41.1-10.3,45.3-48.4,44.9-69.7C422,237.9,480.2,179.6,465.5,102.1z M255.7,168.7c-23.6,27.6-76.1,75.5-76.1,75.5c-1.7,1.4-4,1.6-5.9,0.4c-0.7-0.5-1.4-1.1-2.1-1.7c-8.4-8.4-63.9-57.8-76.5-75c-13.4-18.3-19.8-51.2-1.7-70.4s57-20.6,82.8,7.7c0,0,29.7-33.8,65.8-18.3S276.7,144,255.7,168.7z M372.8,177.8c-10.6,1.3-21.3,1.5-31.9,0.5V70.5h21.7c14.3-0.1,28,6,37.5,16.8c6.6,7.6,11.8,18.4,11.8,33.2C411.9,156.9,393.2,171.2,372.8,177.8z"/></svg>
